<?xml version="1.0"?>
<svg xmlns="http://www.w3.org/2000/svg" viewBox="0 0 24 24" enable-background="new 0 0 24 24">
    <path d="M 1.5625 2.375 C 1.5625 2.375 1.3815 5.72975 1.6875 7.96875 C 1.8365 9.05775 6.20475 11.4735 8.46875 12.1875 L 9.71875 12.59375 L 2.90625 18.46875 C 2.76925 18.58775 2.79475 18.72625 2.96875 18.78125 L 4.875 19.375 C 5.049 19.43 5.338 19.42775 5.5 19.34375 L 15.15625 14.28125 L 20.21875 15.875 C 21.59875 16.31 23.00075 15.90975 23.21875 15.21875 C 23.54775 14.17175 21.70775 12.179 20.34375 11.75 L 5 6.90625 L 2.65625 2.71875 C 1.97225 2.50375 1.5625 2.375 1.5625 2.375 z M 8.6875 2.53125 C 8.586625 2.5444688 8.5295 2.6485 8.5625 2.78125 L 9.71875 7.34375 L 13.8125 8.65625 L 11.15625 3.5625 C 11.07225 3.4005 10.8615 3.21025 10.6875 3.15625 L 8.78125 2.5625 C 8.73775 2.54875 8.721125 2.5268437 8.6875 2.53125 z M 17 15 C 16.447715 15 16 15.447715 16 16 C 16 16.552285 16.447715 17 17 17 C 17.552285 17 18 16.552285 18 16 C 18 15.447715 17.552285 15 17 15 z"/>
</svg>
