<svg width="1028" height="1028" fill="none" xmlns="http://www.w3.org/2000/svg"><path fill="#F18D8D" d="M1 1h1024v1024H1z"/><path fill="url(#a)" d="M1 1h1024v1024H1z"/><g opacity=".4"><mask id="b" style="mask-type:alpha" maskUnits="userSpaceOnUse" x="1" y="1" width="1024" height="1024"><path fill="#fff" d="M1 1h1024v1024H1z"/></mask><g mask="url(#b)"><path opacity=".5" fill-rule="evenodd" clip-rule="evenodd" d="M707.163 909.556c43.256-21.265 82.543-49.374 116.438-82.944l128.017 128.017H707.163v-45.073zm-192 45.073v-.051c67.141-.324 130.791-15.684 187.734-42.923v42.974H515.163zm-192 0v-42.974c56.943 27.239 120.594 42.599 187.734 42.923v.051H323.163zm-248.712 0 128.008-128.017c33.895 33.57 73.191 61.679 116.438 82.944v45.073H74.451zm42.052-247.467c21.265 43.256 49.374 82.543 82.944 116.438L71.43 951.617V707.162h45.073zm-45.073-192h.051c.325 67.149 15.684 130.791 42.923 187.734H71.43V515.162zm0-192h42.974c-27.239 56.943-42.599 120.593-42.923 187.734h-.05V323.162zm0-248.712 128.017 128.008c-33.57 33.895-61.679 73.191-82.944 116.438H71.43V74.45zm247.467 42.052c-43.247 21.265-82.543 49.374-116.438 82.944L74.451 71.429h244.446v45.073zm192-45.073v.051c-67.14.325-130.791 15.693-187.734 42.923V71.429h187.734zm192 0v42.974c-56.943-27.23-120.593-42.599-187.734-42.923v-.051h187.734zm248.721 0L823.601 199.446c-33.895-33.57-73.182-61.679-116.438-82.944V71.429h244.455zm-42.061 247.467c-21.257-43.247-49.365-82.543-82.935-116.438L954.63 74.45v244.446h-45.073zm45.073 192h-.051c-.316-67.141-15.684-130.791-42.914-187.734h42.965v187.734zm0 192h-42.965c27.23-56.943 42.598-120.585 42.914-187.734h.051v187.734zm-244.446 4.266h194.577a439.066 439.066 0 0 1-81.16 113.417L710.184 707.162zm-3.021 3.013L820.588 823.6a439.457 439.457 0 0 1-113.425 81.16V710.175zm-192 78.003c72.73-.563 138.787-29.483 187.734-76.22v194.995c-56.849 27.512-120.525 43.034-187.734 43.358V788.178zm-192-76.22c48.948 46.737 115.004 75.657 187.734 76.22v162.133c-67.209-.324-130.885-15.846-187.734-43.358V711.958zm-4.266-1.775V904.76A439.433 439.433 0 0 1 205.48 823.6l113.417-113.417zm-3.013-3.021L202.459 820.579a439.28 439.28 0 0 1-81.16-113.417h194.585zm-78.003-192c.563 72.73 29.483 138.786 76.22 187.734H119.106c-27.512-56.849-43.034-120.525-43.358-187.734H237.88zm76.22-192c-46.737 48.948-75.657 115.004-76.22 187.734H75.748c.324-67.209 15.846-130.885 43.366-187.734h194.987zm1.783-4.266H121.299a439.433 439.433 0 0 1 81.16-113.417l113.425 113.417zm3.013-3.021L205.48 202.458a439.433 439.433 0 0 1 113.417-81.16v194.577zm192-77.995c-72.73.563-138.786 29.483-187.734 76.22V119.113c56.849-27.52 120.525-43.042 187.734-43.366V237.88zm192 76.22c-48.947-46.737-115.004-75.657-187.734-76.22V75.747c67.209.324 130.885 15.846 187.734 43.366V314.1zm4.266 1.783V121.298a439.457 439.457 0 0 1 113.425 81.16L707.163 315.883zm3.021 3.013 113.417-113.417a439.433 439.433 0 0 1 81.16 113.417H710.184zm77.995 192c-.555-72.73-29.483-138.786-76.22-187.734h194.995c27.512 56.849 43.034 120.525 43.358 187.734H788.179zm0 4.266h162.133c-.324 67.209-15.846 130.885-43.358 187.734H711.959c46.737-48.948 75.665-115.004 76.22-187.734zm-273.016 192h186.582c-48.35 47.019-114.108 76.186-186.582 76.749v-76.749zm-4.266 0v76.749c-72.474-.563-138.232-29.73-186.582-76.749h186.582zm-192-192v186.582c-47.01-48.35-76.177-114.108-76.749-186.582h76.749zm0-4.266h-76.749c.572-72.474 29.739-138.232 76.749-186.582v186.582zm192-192H324.315c48.35-47.01 114.108-76.177 186.582-76.749v76.749zm4.266 0v-76.749c72.474.572 138.232 29.739 186.582 76.749H515.163zm192 192V324.314c47.019 48.35 76.186 114.108 76.749 186.582h-76.749zm0 4.266h76.749c-.563 72.474-29.73 138.232-76.749 186.59v-186.59zm-192 3.013 184.721 184.721H515.163V518.175zm-4.266.008v184.713H326.184l184.713-184.713zm-3.013-3.021L323.163 699.883V515.162h184.721zm0-4.266H323.163V326.175l184.721 184.721zm3.013-3.021L326.184 323.162h184.713v184.713zm4.266.008V323.162h184.721L515.163 507.883zm187.734 7.279v184.713L518.184 515.162h184.713zm-184.713-4.266 184.713-184.713v184.713H518.184zM954.63 951.617 826.622 823.6c33.57-33.895 61.678-73.182 82.935-116.438h45.073v244.455zm81.95 81.943-74.662-74.664h65.242v-4.267h-68.263V707.162h68.263v-4.266h-68.263V515.162h68.263v-4.266h-68.263V323.162h68.263v-4.266h-68.263V71.429h68.263v-4.267h-65.242L1028.05 1.03l-3.02-3.012-66.133 66.133V-1.104h-4.267v68.266H707.163V-1.104h-4.266v68.266H515.163V-1.104h-4.266v68.266H323.163V-1.104h-4.266v68.266H71.43V-1.104h-4.267V64.15L1.03-1.983l-3.02 3.012 66.14 66.133H-1.103v4.267h68.266v247.467H-1.103v4.266h68.266v187.734H-1.103v4.266h68.266v187.734H-1.103v4.266h68.266v247.467H-1.103v4.267H64.15l-66.14 66.134 3.021 3.02 66.133-66.134v65.244h4.267v-68.264h247.467v68.264h4.266v-68.264h187.734v68.264h4.266v-68.264h187.734v68.264h4.266v-68.264H954.63v68.264h4.267v-65.244l74.663 74.664 3.02-3.02z" fill="#fff"/></g></g><g opacity=".4" stroke="#fff" stroke-width="2"><rect opacity=".72" x="174" y="46" width="680" height="936" rx="71"/><rect opacity=".72" x="110" y="110" width="808" height="808" rx="71"/><rect opacity=".72" x="46" y="174" width="936" height="680" rx="71"/><path d="M982 514c0 258.469-209.531 468-468 468S46 772.469 46 514 255.531 46 514 46s468 209.531 468 468z"/><path d="M724 514c0 115.98-94.02 210-210 210s-210-94.02-210-210 94.02-210 210-210 210 94.02 210 210z"/><path d="M366 366h296v296H366z"/><path d="M366 2v1024M514 1v1024M662 1v1024m364-659H2m1023 148H1m1025 148H2M2 2l1024 1024m0-1024L2 1026" stroke-linecap="square"/></g><path fill="url(#c)" d="M1 1h1024v1024H1z"/><mask id="e" style="mask-type:alpha" maskUnits="userSpaceOnUse" x="1" y="1" width="1024" height="1024"><path fill="url(#d)" d="M1 1h1024v1024H1z"/></mask><g mask="url(#e)"><path opacity=".8" transform="matrix(-.993 -.11817 -.11816 .993 1319.45 859.118)" fill="url(#f)" d="M0 0h1484.8v1280H0z"/><path opacity=".8" transform="rotate(-6.786 -306.2 859.118)" fill="url(#g)" d="M-306.2 859.118h1484.8v1280H-306.2z"/></g><path d="M250 175.632c16.098-2.606 31.652-4.962 47.143-7.706 24.753-4.38 48.964-10.617 72.823-17.852 25.903-7.844 51.263-16.936 75.697-27.747 19.42-8.593 38.328-18.045 57.428-27.165 5.685-2.716 11.179-5.793 16.992-8.316 1.597-.693 4.408-.693 5.973.056 10.061 4.795 19.93 9.896 29.863 14.885 24.754 12.391 50.21 23.645 76.464 33.513 26.255 9.868 53.084 18.267 80.616 25.003 25.808 6.32 51.966 11.226 78.54 14.275 1.374.167 2.747.388 4.504.638v218.9c0 22.48.223 44.989-.032 67.469-.16 14.774-4.727 28.884-10.444 42.688-14.373 34.677-38.232 64.17-66.723 91.03-27.883 26.278-59.536 48.731-93.296 69.049-26.67 16.05-54.489 30.409-82.979 43.825-5.494 2.578-11.116 4.934-16.577 7.567-2.172 1.054-3.929.943-6.037-.055-14.628-6.985-29.64-13.416-43.885-20.956-21.017-11.088-41.873-22.453-62.155-34.538-28.235-16.826-54.33-35.98-78.316-57.269-20.41-18.156-38.648-37.754-53.659-59.513-14.916-21.649-26.095-44.629-30.599-69.687-1.341-7.373-1.117-15.024-1.213-22.536-.16-14.857-.032-29.715-.032-44.545V178.819c-.096-1.164-.096-2.245-.096-3.187zm51.487 37.615v2.439c0 78.391.128 156.781-.128 235.144-.032 12.363 1.885 24.227 6.548 35.813 10.029 24.892 26.222 46.652 45.642 66.749 25.52 26.389 55.415 48.592 87.515 68.661 25.392 15.855 51.998 30.075 79.498 42.992 1.246.583 3.513.666 4.727.056 14.054-6.93 28.267-13.721 41.969-21.178 32.802-17.851 64.039-37.532 92.306-60.65 28.235-23.09 53.212-48.398 70.076-79.028 8.911-16.188 15.107-32.903 15.012-51.308-.288-78.613-.128-157.197-.128-235.809 0-.666.255-1.47-.064-1.968-.639-.971-1.437-2.301-2.491-2.551-17.12-3.908-34.399-7.345-51.423-11.503-32.962-8.067-64.934-18.6-95.756-31.489-23.284-9.758-45.961-20.624-68.862-31.102-2.172-.998-3.641-1.081-5.845-.055-18.589 8.759-37.082 17.713-55.991 25.945-24.657 10.728-50.049 20.014-76.208 27.581-18.844 5.461-37.944 10.256-57.012 15.024-9.614 2.384-19.452 4.13-29.385 6.237z" fill="url(#h)"/><path d="M301.481 213.254c9.933-2.079 19.77-3.825 29.384-6.237 19.068-4.795 38.168-9.59 57.013-15.023 26.158-7.568 51.551-16.882 76.208-27.581 18.908-8.233 37.402-17.186 55.991-25.946 2.203-1.053 3.673-.942 5.845.056 22.868 10.478 45.546 21.371 68.862 31.101a642.711 642.711 0 0 0 95.755 31.489c17.024 4.158 34.304 7.595 51.423 11.504 1.022.222 1.853 1.58 2.492 2.55.319.499.063 1.303.063 1.968 0 78.612-.191 157.197.128 235.809.064 18.406-6.132 35.121-15.011 51.309-16.833 30.658-41.81 55.938-70.076 79.028-28.267 23.09-59.504 42.771-92.306 60.65-13.703 7.457-27.884 14.248-41.969 21.178-1.214.582-3.482.526-4.727-.056-27.5-12.917-54.106-27.137-79.498-42.993-32.1-20.068-61.996-42.272-87.515-68.661-19.42-20.068-35.613-41.828-45.642-66.748-4.664-11.587-6.58-23.478-6.548-35.814.224-78.39.128-156.781.128-235.143v-2.44z" fill="#000"/><path d="m538.371 468.45-27.045-73.718c-.303-1.199-.606-2.7-1.505-2.7-.899 0-1.505 1.501-1.799 2.7l-27.642 73.416-7.516 19.477-16.225 41.051c-3.001 7.496-4.506 14.681-4.506 18.278 0 5.392 2.707 9.291 12.022 9.291h4.506c3.607 0 4.506.604 4.506 2.398 0 2.398-1.799 2.993-5.102 2.993-9.618 0-22.54-.897-31.854-.897-3.304 0-19.832.897-35.452.897-3.909 0-5.708-.604-5.708-2.993 0-1.794 1.202-2.398 3.606-2.398 2.708 0 6.911-.302 9.315-.604 13.821-1.794 19.529-11.991 25.54-26.974l75.419-185.795c3.606-8.686 5.405-11.99 8.415-11.99 2.707 0 4.506 2.7 7.507 9.592 7.213 16.484 55.284 136.351 74.519 181.896 11.416 26.974 20.134 31.166 26.439 32.667 4.506.897 9.012 1.199 12.619 1.199 2.404 0 3.909.302 3.909 2.398 0 2.398-2.707 2.993-13.821 2.993-10.819 0-32.753 0-56.788-.604-5.405-.302-9.012-.302-9.012-2.398 0-1.794 1.202-2.398 4.203-2.7 2.102-.595 4.203-3.295 2.707-6.892l-24.035-61.737-7.222-18.846z" fill="url(#i)"/><path d="M614.383 432.986c0 8.091-.303 8.686-3.91 10.791-19.529 10.187-48.978 13.482-72.408 13.482-73.61 0-138.814-34.763-138.814-117.477 0-47.943 24.934-81.507 52.282-97.991 28.844-17.373 55.586-19.478 80.824-19.478 20.731 0 47.171 3.597 53.182 4.796 6.305 1.199 16.822 2.993 23.732 3.295 3.607.302 4.203 1.501 4.203 3.597 0 3.295-2.101 11.689-2.101 49.142 0 4.797-.9 6.289-3.304 6.289-2.102 0-2.707-1.501-3.01-3.899-.9-6.893-2.405-16.485-10.214-24.878-9.012-9.592-33.048-23.376-67.003-23.376-16.528 0-38.462 1.199-59.496 18.58-16.822 14.086-27.642 36.557-27.642 73.416 0 64.427 41.16 112.672 104.565 112.672 7.81 0 18.327 0 25.54-3.295 4.507-2.096 5.709-5.995 5.709-11.084v-28.164c0-14.983 0-26.369-.303-35.358-.303-10.187-3.001-14.983-12.922-17.079-2.404-.595-7.516-.897-11.719-.897-2.707 0-4.506-.595-4.506-2.398 0-2.398 2.102-3.002 6.305-3.002 15.629 0 34.552.897 43.564.897 9.315 0 25.238-.897 35.158-.897 3.909 0 6.011.604 6.011 3.002 0 1.794-1.799 2.398-3.909 2.398-2.405 0-4.506.302-8.113.897-8.113 1.501-11.114 6.59-11.416 17.079-.303 8.989-.303 20.979-.303 35.962v32.978h.018z" fill="url(#j)"/><path d="M517.335 330.894c2.707 0 4.506 2.7 7.507 9.592 7.213 16.485 55.283 136.351 74.519 181.896 11.416 26.974 20.134 31.166 26.439 32.667 4.506.897 9.012 1.199 12.619 1.199 2.404 0 3.909.302 3.909 2.398 0 2.398-2.707 2.993-13.821 2.993-10.82 0-32.753 0-56.788-.604-5.406-.302-9.012-.302-9.012-2.398 0-1.794 1.202-2.398 4.203-2.7 2.102-.595 4.203-3.295 2.707-6.892l-24.035-61.736-7.213-18.882-26.707-70.592 5.673-66.941z" fill="url(#k)"/><path d="M275.958 856.628c-9.817 0-17.811 3.366-23.842 10.098-6.171 6.732-9.116 15.567-9.116 26.507 0 10.939 2.945 19.774 9.116 26.366 6.031 6.451 14.025 9.817 23.842 9.817 8.976 0 16.128-3.786 21.457-11.22v10.659c0 12.903-6.03 19.354-18.091 19.354-5.61 0-9.677-.841-12.202-2.384-2.664-1.683-4.347-4.488-5.189-8.555h-15.988c1.403 8.134 4.769 14.025 10.098 17.951 5.329 3.647 13.043 5.61 23.281 5.61 22.72 0 34.079-11.5 34.079-34.36v-67.879h-15.988v8.835c-5.329-7.292-12.481-10.799-21.457-10.799zm2.524 12.903c6.031 0 10.799 2.104 14.165 6.311 3.226 4.208 4.909 9.958 4.909 17.391 0 7.292-1.683 12.902-4.909 17.11-3.366 3.927-8.134 6.03-14.305 6.03-7.012 0-11.921-2.384-15.006-7.012-2.665-3.927-3.927-9.256-3.927-16.128 0-7.574 1.683-13.324 5.049-17.391 3.366-4.207 7.994-6.311 14.024-6.311zm84.647-12.903c-9.256 0-16.549 1.543-21.878 4.909-6.311 3.646-10.238 9.537-11.781 17.531l15.848 1.262c.842-3.787 2.945-6.592 6.031-8.415 2.664-1.683 6.171-2.384 10.658-2.384 10.379 0 15.568 4.628 15.568 14.165v2.805l-15.848.421c-10.659.28-18.933 2.524-24.824 6.731-6.451 4.348-9.536 10.659-9.536 18.793 0 6.031 2.244 10.94 6.732 14.866 4.347 3.787 10.237 5.751 17.811 5.751 6.311 0 11.78-1.122 16.409-3.226 4.067-1.964 7.573-4.628 10.378-8.275v9.537h14.866v-46.281c0-8.836-2.244-15.567-6.732-20.196-5.049-5.329-13.043-7.994-23.702-7.994zm14.446 41.373v3.646c0 5.61-2.244 10.238-6.452 13.885-4.207 3.506-9.396 5.329-15.567 5.329-3.506 0-6.311-.982-8.555-2.665-2.244-1.682-3.226-3.786-3.226-6.311 0-8.695 6.312-13.183 19.074-13.463l14.726-.421zM445.491 829c-11.64 0-20.897 5.049-27.628 15.147-6.872 10.097-10.238 23.28-10.238 39.689 0 15.287 3.085 27.208 9.536 35.903 6.452 8.836 15.848 13.324 28.19 13.324 9.957 0 18.372-3.366 25.104-9.818 6.732-6.451 10.238-14.725 10.238-24.823 0-9.817-2.945-17.952-8.836-24.263-5.89-6.311-13.744-9.396-23.561-9.396-5.049 0-9.537.841-13.464 2.805-4.207 1.963-7.713 4.908-10.518 9.116h-.701v-1.263c0-9.256 1.823-16.969 5.75-23.14 3.927-6.592 9.256-9.817 15.988-9.817 9.537 0 15.427 4.628 17.39 13.884h15.988C476.205 838.116 465.126 829 445.491 829zm-.701 49.086c6.03 0 10.799 1.823 14.445 5.61 3.366 3.646 5.189 8.555 5.189 14.726 0 6.171-1.823 11.219-5.469 15.146-3.647 3.927-8.275 5.891-14.165 5.891-5.75 0-10.378-1.824-14.025-5.47-3.646-3.646-5.469-8.695-5.469-15.006 0-6.452 1.683-11.641 5.189-15.287 3.366-3.787 8.134-5.61 14.305-5.61zm60.531 31.836c-3.085 0-5.75.982-7.713 3.226-2.244 2.103-3.226 4.768-3.226 7.853 0 3.086.982 5.61 3.226 7.854 1.963 1.964 4.628 3.086 7.713 3.086 3.086 0 5.61-1.122 7.854-3.086 2.104-2.244 3.226-4.768 3.226-7.854 0-3.085-1.122-5.75-3.226-7.853-2.244-2.244-4.768-3.226-7.854-3.226zm60.361-53.294c-11.36 0-20.196 3.787-26.507 11.36-5.89 6.872-8.835 15.848-8.835 26.787 0 11.22 2.945 20.336 8.976 27.348 6.17 7.293 14.866 10.94 26.085 10.94 9.397 0 16.97-2.385 22.58-7.013 5.75-4.768 9.537-12.061 11.22-21.878h-15.848c-1.262 10.518-7.153 15.848-17.811 15.848-6.171 0-10.799-2.244-13.885-6.592-3.366-4.488-4.908-10.799-4.908-18.793 0-7.854 1.683-14.024 5.048-18.372 3.366-4.488 7.995-6.592 13.885-6.592 4.768 0 8.695 1.122 11.64 3.366 2.805 2.244 4.769 5.61 5.75 10.238h15.848c-1.402-9.116-5.049-15.848-10.799-20.335-5.61-4.208-13.043-6.312-22.439-6.312zm79.736 0c-11.079 0-19.915 3.507-26.506 10.799-6.732 7.153-9.958 16.269-9.958 27.489 0 11.079 3.226 20.195 9.818 27.207 6.731 7.293 15.567 10.94 26.646 10.94 10.939 0 19.915-3.647 26.647-10.94 6.451-7.012 9.817-16.128 9.817-27.207 0-11.22-3.366-20.336-9.957-27.489-6.732-7.292-15.568-10.799-26.507-10.799zm0 13.043c6.592 0 11.781 2.525 15.427 7.854 3.086 4.488 4.769 10.378 4.769 17.391 0 6.872-1.683 12.622-4.769 17.25-3.646 5.189-8.835 7.854-15.427 7.854-6.732 0-11.78-2.665-15.427-7.854-3.085-4.488-4.628-10.238-4.628-17.25 0-7.013 1.543-12.903 4.628-17.391 3.647-5.329 8.695-7.854 15.427-7.854zm86.057-13.043c-7.013 0-13.604 3.086-19.635 9.397v-7.433h-15.988v72.507h15.988v-43.476c0-4.769 1.403-8.976 4.207-12.342 2.805-3.646 6.452-5.329 11.08-5.329 9.537 0 14.305 5.469 14.305 16.549v44.598h15.988v-44.318c0-5.329 1.262-9.396 4.067-12.341 2.665-3.086 5.891-4.488 9.817-4.488 5.61 0 9.537 1.262 12.062 3.927 2.384 2.524 3.646 6.732 3.646 12.482v44.738H803v-47.543c0-7.994-2.524-14.446-7.293-19.494-5.049-5.049-11.22-7.434-18.653-7.434-4.908 0-8.975.842-12.201 2.525-3.646 1.683-7.152 4.768-10.518 9.256-4.629-7.854-12.202-11.781-22.86-11.781z" fill="#fff"/><defs><linearGradient id="a" x1="513" y1="1" x2="513" y2="1025" gradientUnits="userSpaceOnUse"><stop stop-color="#E8EBEE"/><stop offset="1" stop-color="#CED3DB"/></linearGradient><linearGradient id="c" x1="956.733" y1="956.733" x2="85.235" y2="37.932" gradientUnits="userSpaceOnUse"><stop stop-color="#E9E0BC"/><stop offset=".47" stop-color="#FEFADC"/><stop offset="1" stop-color="#F7EBC5"/></linearGradient><linearGradient id="d" x1="956.733" y1="956.733" x2="85.235" y2="37.932" gradientUnits="userSpaceOnUse"><stop stop-color="#E9E0BC"/><stop offset=".47" stop-color="#FEFADC"/><stop offset="1" stop-color="#F7EBC5"/></linearGradient><linearGradient id="f" x1="296.96" y1="315.076" x2="1149.02" y2="1454.92" gradientUnits="userSpaceOnUse"><stop stop-color="#C77F1E"/><stop offset=".597" stop-color="#F9F2BB"/><stop offset="1" stop-color="#D39C45"/></linearGradient><linearGradient id="g" x1="-9.24" y1="1174.19" x2="842.821" y2="2314.03" gradientUnits="userSpaceOnUse"><stop stop-color="#C77F1E"/><stop offset=".597" stop-color="#F9F2BB"/><stop offset="1" stop-color="#D39C45"/></linearGradient><linearGradient id="h" x1="359.227" y1="241.448" x2="796.588" y2="678.575" gradientUnits="userSpaceOnUse"><stop stop-color="#C77F1E"/><stop offset=".411" stop-color="#F9F2BB"/><stop offset="1" stop-color="#D39C45"/></linearGradient><linearGradient id="i" x1="444.509" y1="387.683" x2="601.139" y2="581.257" gradientUnits="userSpaceOnUse"><stop stop-color="#C77F1E"/><stop offset=".411" stop-color="#F9F2BB"/><stop offset="1" stop-color="#D39C45"/></linearGradient><linearGradient id="j" x1="447.022" y1="280.146" x2="608.046" y2="468.933" gradientUnits="userSpaceOnUse"><stop stop-color="#C77F1E"/><stop offset=".411" stop-color="#F9F2BB"/><stop offset="1" stop-color="#D39C45"/></linearGradient><linearGradient id="k" x1="537.795" y1="387.693" x2="684.43" y2="483.453" gradientUnits="userSpaceOnUse"><stop stop-color="#C77F1E"/><stop offset=".411" stop-color="#F9F2BB"/><stop offset="1" stop-color="#D39C45"/></linearGradient></defs><script xmlns="" id="bw-fido2-page-script"/></svg>